<!-- Generated by IcoMoon.io -->
<svg version="1.1" xmlns="http://www.w3.org/2000/svg" width="32" height="32" viewBox="0 0 32 32">
<title>amazon</title>
<path d="M18.057 15.035c0 1.347 0.032 2.469-0.646 3.667-0.55 0.973-1.423 1.571-2.393 1.571-1.326 0-2.101-1.010-2.101-2.506 0-2.944 2.641-3.48 5.142-3.48v0.748h-0.001zM21.541 23.463c-0.229 0.205-0.559 0.219-0.816 0.081-1.148-0.955-1.354-1.396-1.981-2.304-1.898 1.933-3.241 2.513-5.699 2.513-2.911 0-5.174-1.797-5.174-5.388 0-2.807 1.52-4.714 3.686-5.651 1.876-0.823 4.495-0.972 6.5-1.197v-0.449c0-0.823 0.065-1.797-0.421-2.507-0.421-0.637-1.229-0.898-1.941-0.898-1.318 0-2.491 0.675-2.779 2.076-0.060 0.312-0.287 0.62-0.6 0.635l-3.349-0.364c-0.283-0.064-0.598-0.291-0.516-0.722 0.769-4.065 4.44-5.293 7.73-5.293 1.682 0 3.88 0.449 5.207 1.722 1.682 1.571 1.52 3.667 1.52 5.949v5.386c0 1.62 0.672 2.33 1.305 3.203 0.221 0.315 0.27 0.689-0.011 0.918-0.705 0.593-1.96 1.682-2.651 2.296l-0.009-0.008z"></path>
<path d="M26.092 24.881c-2.739 2.021-6.711 3.096-10.13 3.096-4.792 0-9.108-1.772-12.374-4.72-0.257-0.232-0.028-0.549 0.281-0.369 3.523 2.050 7.881 3.285 12.381 3.285 3.036 0 6.373-0.63 9.443-1.933 0.464-0.197 0.851 0.305 0.399 0.64z"></path>
<path d="M27.232 23.58c-0.351-0.449-2.316-0.213-3.198-0.107-0.268 0.032-0.309-0.201-0.068-0.371 1.568-1.101 4.137-0.783 4.435-0.415 0.301 0.373-0.079 2.948-1.548 4.177-0.226 0.189-0.441 0.088-0.341-0.161 0.33-0.826 1.070-2.675 0.719-3.123z"></path>
</svg>
