<!-- Generated by IcoMoon.io -->
<svg version="1.1" xmlns="http://www.w3.org/2000/svg" width="32" height="32" viewBox="0 0 32 32">
<title>cart</title>
<path d="M1.289 3.061c-0.71-0.001-1.289 0.578-1.289 1.288s0.579 1.289 1.289 1.289l2.86-0.001 3.383 13.533c0.287 1.147 1.314 1.933 2.498 1.933l16.069 0.001c1.163 0 2.149-0.77 2.457-1.893l3.342-12.284h-2.698l-3.101 11.6h-16.069l-3.383-13.533c-0.287-1.147-1.314-1.933-2.497-1.933h-2.86zM24.488 21.104c-2.12 0-3.867 1.746-3.867 3.866s1.747 3.867 3.867 3.867c2.12 0 3.867-1.747 3.867-3.867s-1.747-3.866-3.867-3.866zM12.888 21.104c-2.119 0-3.866 1.746-3.866 3.866s1.747 3.867 3.867 3.867c2.119 0 3.866-1.747 3.866-3.867s-1.747-3.866-3.866-3.866h-0.001zM12.888 23.682c0.724 0 1.288 0.563 1.288 1.288s-0.564 1.289-1.288 1.289c-0.725 0-1.289-0.564-1.289-1.289s0.564-1.288 1.289-1.288zM24.487 23.682c0.725 0 1.289 0.563 1.289 1.288s-0.564 1.289-1.289 1.289c-0.725 0-1.289-0.564-1.289-1.289s0.564-1.288 1.289-1.288z"></path>
</svg>
