<!-- Generated by IcoMoon.io -->
<svg version="1.1" xmlns="http://www.w3.org/2000/svg" width="32" height="32" viewBox="0 0 32 32">
<title>custom-product</title>
<path d="M31.83 5.824l-5.664-5.664c-0.213-0.213-0.559-0.213-0.772 0l-10.078 10.077-6.084-5.986c-0.005-0.005-0.011-0.008-0.016-0.012-0.020-0.018-0.041-0.035-0.064-0.050-0.011-0.007-0.021-0.015-0.032-0.022-0.027-0.015-0.056-0.027-0.086-0.038-0.008-0.003-0.014-0.007-0.022-0.010l-8.24-2.574c-0.193-0.060-0.405-0.008-0.549 0.135s-0.196 0.355-0.135 0.549l2.575 8.239c0.016 0.050 0.040 0.096 0.068 0.139 0.009 0.014 0.020 0.025 0.030 0.038 0.013 0.017 0.024 0.035 0.040 0.050l6.077 5.98-8.719 8.719c-0.213 0.213-0.213 0.559 0 0.772l5.665 5.665c0.102 0.102 0.241 0.16 0.386 0.16s0.284-0.058 0.386-0.16l8.809-8.809 7.127 6.926c0.091 0.088 0.205 0.13 0.322 0.143 0.827 0.767 1.893 1.191 3.027 1.191 1.191 0 2.312-0.464 3.154-1.307 1.716-1.716 1.735-4.493 0.064-6.237-0.027-0.091-0.074-0.174-0.143-0.241l-7.148-6.88 10.021-10.021c0.213-0.214 0.213-0.559-0-0.773zM8.174 5.002l-0.408 1.387-1.903 0.56c-0.178 0.052-0.318 0.192-0.37 0.37l-0.559 1.903-1.388 0.408-2.104-6.731 6.732 2.104zM6.211 30.671l-4.892-4.893 2.058-2.058 2.446 2.446c0.107 0.107 0.247 0.16 0.386 0.16s0.28-0.053 0.386-0.16c0.213-0.213 0.213-0.559 0-0.772l-2.446-2.446 2.004-2.004 2.446 2.446c0.107 0.107 0.247 0.16 0.386 0.16s0.28-0.053 0.386-0.16c0.213-0.213 0.213-0.559 0-0.772l-2.446-2.446 2.734-2.734 4.962 4.823-8.412 8.411zM28.263 29.203c-1.222 1.222-3.156 1.305-4.477 0.253l4.731-4.731c1.052 1.321 0.969 3.256-0.253 4.478zM22.907 28.789l-12.906-12.543-5.772-5.679 1.298-0.382c0.178-0.052 0.318-0.192 0.37-0.37l0.56-1.903 1.903-0.56c0.178-0.052 0.318-0.192 0.37-0.37l0.387-1.314 11.524 11.338 7.159 6.891-4.891 4.891zM21.026 15.856l-4.932-4.853 2.803-2.803 2.446 2.446c0.107 0.107 0.247 0.16 0.386 0.16s0.28-0.053 0.386-0.16c0.213-0.213 0.213-0.559 0-0.772l-2.446-2.446 2.277-2.277 2.446 2.446c0.107 0.107 0.247 0.16 0.386 0.16s0.28-0.053 0.386-0.16c0.213-0.213 0.213-0.559 0-0.772l-2.446-2.446 3.059-3.059 4.891 4.892-9.645 9.646z"></path>
</svg>
