<!-- Generated by IcoMoon.io -->
<svg version="1.1" xmlns="http://www.w3.org/2000/svg" width="32" height="32" viewBox="0 0 32 32">
<title>email</title>
<path d="M15.332 23.972c3.303 0 5.981-2.678 5.981-5.981 0 0 0-3.988 0-3.988 0-3.303-2.678-5.981-5.981-5.981s-5.981 2.678-5.981 5.981v3.988c0 3.303 2.678 5.981 5.981 5.981zM15.332 21.313c-1.835 0-3.323-1.488-3.323-3.323 0 0 0-3.988 0-3.988 0-1.835 1.488-3.323 3.323-3.323s3.323 1.488 3.323 3.323v3.988c0 1.835-1.488 3.323-3.323 3.323z"></path>
<path d="M18.655 8.021v10.634c0 2.935 2.378 5.315 5.315 5.317 4.382 0.002 7.961-3.536 7.977-7.917 0-0.187-0.002-0.37-0.007-0.554-0.255-8.401-7.299-15.329-15.704-15.453-9.807-0.144-17.627 8.563-15.967 18.649 1.116 6.786 6.7 12.181 13.515 13.101 4.626 0.625 8.934-0.742 12.194-3.358l-1.664-2.073c-2.719 2.182-6.315 3.318-10.174 2.796-5.671-0.765-10.319-5.252-11.248-10.898-1.384-8.411 5.127-15.679 13.305-15.559 7.003 0.103 12.873 5.876 13.086 12.877 0.005 0.157 0.006 0.312 0.006 0.467-0.011 2.913-2.399 5.265-5.318 5.264-1.468-0.001-2.657-1.191-2.657-2.658 0 0 0-10.634 0-10.634h-2.658z"></path>
</svg>
