<!-- Generated by IcoMoon.io -->
<svg version="1.1" xmlns="http://www.w3.org/2000/svg" width="32" height="32" viewBox="0 0 32 32">
<title>icons-etsy-128</title>
<path d="M11.882 4.455c0-0.394 0.039-0.63 0.709-0.63h9.023c1.576 0 2.443 1.34 3.073 3.861l0.512 2.010h1.537c0.276-5.713 0.512-8.196 0.512-8.196s-3.861 0.433-6.147 0.433h-11.545l-6.186-0.197v1.655l2.088 0.394c1.458 0.276 1.813 0.591 1.931 1.931 0 0 0.118 3.94 0.118 10.442s-0.118 10.402-0.118 10.402c0 1.182-0.473 1.616-1.931 1.891l-2.088 0.394v1.655l6.186-0.197h10.323c2.325 0 7.723 0.197 7.723 0.197 0.118-1.418 0.906-7.841 1.024-8.55h-1.458l-1.537 3.507c-1.221 2.758-2.995 2.955-4.965 2.955h-5.871c-1.97 0-2.916-0.788-2.916-2.482v-8.984c0 0 4.374 0 5.792 0.118 1.103 0.079 1.773 0.394 2.128 1.931l0.473 2.049h1.694l-0.118-5.162 0.236-5.201h-1.694l-0.552 2.285c-0.355 1.497-0.591 1.773-2.128 1.931-2.009 0.197-5.832 0.158-5.832 0.158v-10.599z"></path>
</svg>
