<?xml version="1.0" encoding="utf-8"?>
<!-- Generator: Adobe Illustrator 22.1.0, SVG Export Plug-In . SVG Version: 6.00 Build 0)  -->
<svg version="1.1" id="Calque_1" xmlns="http://www.w3.org/2000/svg" xmlns:xlink="http://www.w3.org/1999/xlink" x="0px" y="0px"
	 viewBox="0 0 48 48" style="enable-background:new 0 0 48 48;" xml:space="preserve">
<g>
	<path d="M46,0H2C0.9,0,0,0.9,0,2v44c0,1.1,0.9,2,2,2h23.6V29.4h-6.3v-7.2h6.3v-5.3c0-6.2,3.8-9.6,9.3-9.6c2.6,0,4.9,0.2,5.6,0.3V14
		l-3.8,0c-3,0-3.6,1.4-3.6,3.5v4.6h7.2l-0.9,7.2h-6.2V48H46c1.1,0,2-0.9,2-2V2C48,0.9,47.1,0,46,0z"/>
</g>
</svg>
