<?xml version="1.0" encoding="utf-8"?>
<!-- Generator: Adobe Illustrator 22.1.0, SVG Export Plug-In . SVG Version: 6.00 Build 0)  -->
<svg version="1.1" id="Calque_1" xmlns="http://www.w3.org/2000/svg" xmlns:xlink="http://www.w3.org/1999/xlink" x="0px" y="0px"
	 viewBox="0 0 48 48" style="enable-background:new 0 0 48 48;" xml:space="preserve">
<g>
	<path d="M24,4.3c6.4,0,7.2,0,9.7,0.1c2.7,0.1,5.3,0.7,7.2,2.6s2.5,4.5,2.6,7.2c0.1,2.5,0.1,3.3,0.1,9.7s0,7.2-0.1,9.7
		c-0.1,2.7-0.7,5.3-2.6,7.2s-4.5,2.5-7.2,2.6c-2.5,0.1-3.3,0.1-9.7,0.1s-7.2,0-9.7-0.1c-2.7-0.1-5.3-0.7-7.2-2.6s-2.5-4.5-2.6-7.2
		c-0.1-2.5-0.1-3.3-0.1-9.7s0-7.2,0.1-9.7C4.6,11.6,5.1,9,7.1,7.1s4.5-2.5,7.2-2.6C16.8,4.3,17.6,4.3,24,4.3 M24,0
		c-6.5,0-7.3,0-9.9,0.1C10.2,0.3,6.8,1.3,4,4c-2.8,2.8-3.7,6.2-3.9,10.1C0,16.7,0,17.5,0,24s0,7.3,0.1,9.9C0.3,37.8,1.3,41.2,4,44
		c2.8,2.8,6.2,3.7,10.1,3.9C16.7,48,17.5,48,24,48s7.3,0,9.9-0.1c3.9-0.2,7.3-1.1,10.1-3.9c2.8-2.8,3.7-6.2,3.9-10.1
		C48,31.3,48,30.5,48,24s0-7.3-0.1-9.9C47.7,10.2,46.7,6.8,44,4c-2.8-2.8-6.2-3.7-10.1-3.9C31.3,0,30.5,0,24,0L24,0z"/>
	<path d="M24,11.7c-6.8,0-12.3,5.5-12.3,12.3S17.2,36.3,24,36.3S36.3,30.8,36.3,24S30.8,11.7,24,11.7z M24,32c-4.4,0-8-3.6-8-8
		s3.6-8,8-8s8,3.6,8,8S28.4,32,24,32z"/>
	<circle cx="36.8" cy="11.2" r="2.9"/>
</g>
</svg>
