<!-- Generated by IcoMoon.io -->
<svg version="1.1" xmlns="http://www.w3.org/2000/svg" width="32" height="32" viewBox="0 0 32 32">
<title>loading</title>
<path d="M15.92 31.841c-2.388 0-4.776-0.597-6.766-1.592l1.791-3.582c1.393 0.796 3.184 1.194 4.975 1.194 6.567 0 11.94-5.373 11.94-11.94s-5.373-11.94-11.94-11.94c-6.567 0-11.94 5.373-11.94 11.94 0 1.791 0.398 3.582 1.194 5.174l-3.582 1.791c-0.995-2.189-1.592-4.577-1.592-6.965 0-8.756 7.164-15.92 15.92-15.92s15.921 7.164 15.921 15.92c0 8.757-7.164 15.921-15.921 15.921z"></path>
</svg>
