<!-- Generated by IcoMoon.io -->
<svg version="1.1" xmlns="http://www.w3.org/2000/svg" width="32" height="32" viewBox="0 0 32 32">
<title>loading2</title>
<path d="M18.488 31.854c0.777-0.122 1.534-0.306 2.269-0.535 0.841-0.262 1.311-1.158 1.049-1.999s-1.158-1.312-1.999-1.049c-0.588 0.183-1.194 0.331-1.816 0.429-0.87 0.137-1.466 0.955-1.328 1.825s0.955 1.466 1.825 1.329zM7.637 29.676c1.116 0.69 2.331 1.231 3.605 1.632 0.84 0.265 1.738-0.203 2.002-1.043s-0.203-1.738-1.043-2.002c-1.019-0.321-1.991-0.75-2.884-1.302-0.75-0.464-1.734-0.231-2.198 0.518s-0.231 1.734 0.518 2.198zM26.898 27.715c0.242-0.226 0.458-0.48 0.679-0.729 0.585-0.659 0.524-1.669-0.135-2.254s-1.669-0.525-2.254 0.135c-0.156 0.176-0.304 0.359-0.474 0.519-0.643 0.603-0.675 1.614-0.072 2.257s1.614 0.675 2.257 0.072zM0.443 19.638c0.392 1.729 1.069 3.349 1.971 4.815 0.462 0.751 1.446 0.985 2.196 0.524s0.985-1.446 0.524-2.196c-0.721-1.172-1.263-2.467-1.577-3.848-0.195-0.859-1.051-1.399-1.91-1.204s-1.399 1.051-1.204 1.91zM31.557 12.545c-1.615-7.109-7.96-12.419-15.557-12.419s-13.942 5.31-15.557 12.419c-0.195 0.859 0.344 1.715 1.203 1.911s1.715-0.344 1.911-1.203c1.291-5.686 6.367-9.933 12.443-9.933s11.152 4.247 12.443 9.933c0.195 0.859 1.051 1.398 1.911 1.203s1.398-1.051 1.203-1.911z"></path>
</svg>
