<?xml version="1.0" encoding="utf-8"?>
<!-- Generator: Adobe Illustrator 23.0.3, SVG Export Plug-In . SVG Version: 6.00 Build 0)  -->
<svg version="1.1" id="Calque_1" xmlns="http://www.w3.org/2000/svg" xmlns:xlink="http://www.w3.org/1999/xlink" x="0px" y="0px"
	 viewBox="0 0 16 16" style="enable-background:new 0 0 16 16;" xml:space="preserve">
<path d="M14.5,7.5C14.2,7.5,14,7.7,14,8c0,3.3-2.7,6-6,6c0,0,0,0,0,0c-1.6,0-3.1-0.6-4.2-1.8C2.6,11.1,2,9.6,2,8c0-3.3,2.7-6,6-6
	c0,0,0,0,0,0c1.7,0,3.3,0.7,4.5,2h-3C9.2,4,9,4.2,9,4.5S9.2,5,9.5,5h4c0,0,0,0,0,0c0,0,0,0,0,0c0.2,0,0.4-0.2,0.4-0.5v-4
	C14,0.2,13.8,0,13.5,0S13,0.2,13,0.5v2.6C11.7,1.8,9.9,1,8,1c0,0,0,0,0,0C6.1,1,4.4,1.7,3.1,3C1.7,4.4,1,6.1,1,8c0,1.9,0.7,3.6,2,5
	C4.4,14.3,6.1,15,8,15c0,0,0,0,0,0c3.9,0,7-3.1,7-7C15,7.7,14.8,7.5,14.5,7.5z"/>
</svg>
