<?xml version="1.0" encoding="utf-8"?>
<!-- Generator: Adobe Illustrator 23.0.3, SVG Export Plug-In . SVG Version: 6.00 Build 0)  -->
<svg version="1.1" id="Calque_1" xmlns="http://www.w3.org/2000/svg" xmlns:xlink="http://www.w3.org/1999/xlink" x="0px" y="0px"
	 viewBox="0 0 16 16" style="enable-background:new 0 0 16 16;" xml:space="preserve">
<g>
	<path d="M8,2c1.7,0,3.3,0.7,4.5,2h-3C9.2,4,9,4.2,9,4.5S9.2,5,9.5,5h4c0,0,0,0,0,0c0,0,0,0,0,0c0.2,0,0.4-0.2,0.4-0.5v-4
		C14,0.2,13.8,0,13.5,0S13,0.2,13,0.5v2.6C11.7,1.8,9.9,1,8,1C4.1,1,1,4.1,1,8c0,0.3,0.2,0.5,0.5,0.5C1.8,8.5,2,8.3,2,8
		C2,4.7,4.7,2,8,2z"/>
	<path d="M14.5,7.5C14.2,7.5,14,7.7,14,8c0,1.6-0.6,3.1-1.8,4.2C11.1,13.4,9.6,14,8,14c-1.7,0-3.3-0.7-4.5-2h3C6.8,12,7,11.8,7,11.5
		S6.8,11,6.5,11h-4c0,0,0,0,0,0c0,0,0,0-0.1,0c-0.2,0-0.4,0.2-0.4,0.5v4C2,15.8,2.2,16,2.5,16S3,15.8,3,15.5v-2.6
		C4.3,14.2,6.1,15,8,15c1.9,0,3.6-0.7,4.9-2.1c1.3-1.3,2.1-3.1,2-4.9C15,7.7,14.8,7.5,14.5,7.5z"/>
</g>
</svg>
