<!-- Generated by IcoMoon.io -->
<svg version="1.1" xmlns="http://www.w3.org/2000/svg" width="32" height="32" viewBox="0 0 32 32">
<title>shipping-free</title>
<path d="M23.981 19.984c-2.193 0-3.997 1.804-3.997 3.997s1.804 3.997 3.997 3.997c2.193 0 3.997-1.804 3.997-3.997s-1.804-3.997-3.997-3.997zM23.981 21.982c1.096 0 1.998 0.902 1.998 1.998s-0.902 1.998-1.998 1.998c-1.096 0-1.998-0.902-1.998-1.998s0.902-1.998 1.998-1.998zM2.998 22.982h1.998v1.998h-3.997v-20.983h17.986v4.996h-1.998v-2.998h-13.989v16.986z"></path>
<path d="M16.986 22.982v-14.988h7.408l6.581 6.581v10.406h-3.997v-1.998h1.998v-7.58l-5.41-5.41h-4.582v12.99h1.998v1.998h-9.121c-0.448 1.716-2.021 2.998-3.869 2.998-2.193 0-3.997-1.804-3.997-3.997s1.804-3.997 3.997-3.997c1.848 0 3.42 1.282 3.869 2.998h5.124zM7.994 21.982c1.096 0 1.998 0.902 1.998 1.998s-0.902 1.998-1.998 1.998c-1.096 0-1.998-0.902-1.998-1.998s0.902-1.998 1.998-1.998z"></path>
<path d="M4.996 15.987h-0.999v-4.996h2.314v0.999h-1.315v3.997z"></path>
<path d="M4.496 12.99h1.815v0.999h-1.815v-0.999zM12.99 15.987h-2.314v-4.996h2.314v0.999h-1.315v2.998h1.315v0.999z"></path>
<path d="M11.175 12.99h1.815v0.999h-1.815v-0.999zM15.987 15.987h-2.314v-4.996h2.314v0.999h-1.315v2.998h1.315v0.999z"></path>
<path d="M14.173 12.99h1.815v0.999h-1.815v-0.999zM9.981 15.987l-1.071-2.069 0.888-0.944v-1.038l-0.888-0.944h-1.924v4.996h0.999v-1.686l0.872 1.686h1.124zM8.478 12.919h-0.494v-0.928h0.494l0.321 0.341v0.246l-0.321 0.342z"></path>
</svg>
