<!-- Generated by IcoMoon.io -->
<svg version="1.1" xmlns="http://www.w3.org/2000/svg" width="32" height="32" viewBox="0 0 32 32">
<title>shipping</title>
<path d="M23.981 20.983c-2.193 0-3.997 1.804-3.997 3.997s1.804 3.997 3.997 3.997c2.193 0 3.997-1.804 3.997-3.997s-1.804-3.997-3.997-3.997zM23.981 22.982c1.096 0 1.998 0.902 1.998 1.998s-0.902 1.998-1.998 1.998c-1.096 0-1.998-0.902-1.998-1.998s0.902-1.998 1.998-1.998zM2.998 23.981h1.998v1.998h-3.997v-20.983h17.986v4.996h-1.998v-2.998h-13.989v16.986z"></path>
<path d="M16.986 23.981v-14.988l7.408 0 6.581 6.581v10.406h-3.997v-1.998h1.998v-7.58l-5.41-5.41h-4.582v12.99h1.998v1.998h-9.121c-0.448 1.716-2.021 2.998-3.869 2.998-2.193 0-3.997-1.804-3.997-3.997s1.804-3.997 3.997-3.997c1.848 0 3.42 1.282 3.869 2.998h5.124zM7.994 22.982c1.096 0 1.998 0.902 1.998 1.998s-0.902 1.998-1.998 1.998c-1.096 0-1.998-0.902-1.998-1.998s0.902-1.998 1.998-1.998zM9.992 7.994c-3.289 0-5.995 2.706-5.995 5.995s2.706 5.995 5.995 5.995c3.289 0 5.995-2.706 5.995-5.995s-2.706-5.995-5.995-5.995zM9.992 9.992c2.193 0 3.997 1.804 3.997 3.997s-1.804 3.997-3.997 3.997c-2.193 0-3.997-1.804-3.997-3.997s1.804-3.997 3.997-3.997z"></path>
<path d="M10.991 13.575l1.118 1.118-1.413 1.413-1.704-1.704v-3.412h1.998v2.584z"></path>
</svg>
