<!-- Generated by IcoMoon.io -->
<svg version="1.1" xmlns="http://www.w3.org/2000/svg" width="32" height="32" viewBox="0 0 32 32">
<title>tags</title>
<path d="M14.536 0.605l-0.379 0.339-13.327 13.327-0.83 0.872 0.832 0.872 10.904 10.904 0.872 0.831 0.872-0.832 13.327-13.327 0.339-0.382v-12.605h-12.611zM15.558 3.028h9.163v9.163l-12.116 12.116-9.163-9.163 12.116-12.116zM28.355 4.239v2.423h1.212v9.881l-11.51 11.435-1.514-1.514-1.703 1.703 2.347 2.387 0.872 0.831 0.836-0.832 12.757-12.611 0.339-0.376v-13.327h-3.635zM21.086 5.451c-0.669 0-1.212 0.543-1.212 1.212s0.543 1.212 1.212 1.212c0.669 0 1.212-0.543 1.212-1.212s-0.543-1.212-1.212-1.212z"></path>
</svg>
