<!-- Generated by IcoMoon.io -->
<svg version="1.1" xmlns="http://www.w3.org/2000/svg" width="32" height="32" viewBox="0 0 32 32">
<title>track-order</title>
<path d="M25.979 23.981c-1.096 0-1.998 0.902-1.998 1.998s0.902 1.998 1.998 1.998c1.096 0 1.998-0.902 1.998-1.998s-0.902-1.998-1.998-1.998zM5.995 3.997c-1.096 0-1.998 0.902-1.998 1.998s0.902 1.998 1.998 1.998c1.096 0 1.998-0.902 1.998-1.998s-0.902-1.998-1.998-1.998z"></path>
<path d="M9.992 4.996c-0.548 0-0.999 0.451-0.999 0.999s0.451 0.999 0.999 0.999c0.548 0 0.999-0.451 0.999-0.999s-0.451-0.999-0.999-0.999zM12.99 4.996c-0.548 0-0.999 0.451-0.999 0.999s0.451 0.999 0.999 0.999c0.548 0 0.999-0.451 0.999-0.999s-0.451-0.999-0.999-0.999zM15.987 4.996c-0.548 0-0.999 0.451-0.999 0.999s0.451 0.999 0.999 0.999c0.548 0 0.999-0.451 0.999-0.999s-0.451-0.999-0.999-0.999zM18.985 4.996c-0.548 0-0.999 0.451-0.999 0.999s0.451 0.999 0.999 0.999c0.548 0 0.999-0.451 0.999-0.999s-0.451-0.999-0.999-0.999zM21.982 4.996c-0.548 0-0.999 0.451-0.999 0.999s0.451 0.999 0.999 0.999c0.548 0 0.999-0.451 0.999-0.999s-0.451-0.999-0.999-0.999zM24.98 4.996c-0.548 0-0.999 0.451-0.999 0.999s0.451 0.999 0.999 0.999c0.548 0 0.999-0.451 0.999-0.999s-0.451-0.999-0.999-0.999zM26.978 6.994c-0.548 0-0.999 0.451-0.999 0.999s0.451 0.999 0.999 0.999c0.548 0 0.999-0.451 0.999-0.999s-0.451-0.999-0.999-0.999zM12.99 17.986c-0.548 0-0.999 0.451-0.999 0.999s0.451 0.999 0.999 0.999c0.548 0 0.999-0.451 0.999-0.999s-0.451-0.999-0.999-0.999zM9.992 17.986c-0.548 0-0.999 0.451-0.999 0.999s0.451 0.999 0.999 0.999c0.548 0 0.999-0.451 0.999-0.999s-0.451-0.999-0.999-0.999zM4.996 19.984c-0.548 0-0.999 0.451-0.999 0.999s0.451 0.999 0.999 0.999 0.999-0.451 0.999-0.999c0-0.548-0.451-0.999-0.999-0.999zM21.982 17.986c-0.548 0-0.999 0.451-0.999 0.999s0.451 0.999 0.999 0.999c0.548 0 0.999-0.451 0.999-0.999s-0.451-0.999-0.999-0.999zM18.985 17.986c-0.548 0-0.999 0.451-0.999 0.999s0.451 0.999 0.999 0.999c0.548 0 0.999-0.451 0.999-0.999s-0.451-0.999-0.999-0.999zM24.98 17.986c-0.548 0-0.999 0.451-0.999 0.999s0.451 0.999 0.999 0.999c0.548 0 0.999-0.451 0.999-0.999s-0.451-0.999-0.999-0.999zM9.992 24.98c-0.548 0-0.999 0.451-0.999 0.999s0.451 0.999 0.999 0.999c0.548 0 0.999-0.451 0.999-0.999s-0.451-0.999-0.999-0.999zM4.996 22.982c-0.548 0-0.999 0.451-0.999 0.999s0.451 0.999 0.999 0.999c0.548 0 0.999-0.451 0.999-0.999s-0.451-0.999-0.999-0.999zM6.994 17.986c-0.548 0-0.999 0.451-0.999 0.999s0.451 0.999 0.999 0.999c0.548 0 0.999-0.451 0.999-0.999s-0.451-0.999-0.999-0.999zM6.994 24.98c-0.548 0-0.999 0.451-0.999 0.999s0.451 0.999 0.999 0.999c0.548 0 0.999-0.451 0.999-0.999s-0.451-0.999-0.999-0.999zM15.987 24.98c-0.548 0-0.999 0.451-0.999 0.999s0.451 0.999 0.999 0.999c0.548 0 0.999-0.451 0.999-0.999s-0.451-0.999-0.999-0.999zM18.985 24.98c-0.548 0-0.999 0.451-0.999 0.999s0.451 0.999 0.999 0.999c0.548 0 0.999-0.451 0.999-0.999s-0.451-0.999-0.999-0.999zM21.982 24.98c-0.548 0-0.999 0.451-0.999 0.999s0.451 0.999 0.999 0.999c0.548 0 0.999-0.451 0.999-0.999s-0.451-0.999-0.999-0.999zM12.99 24.98c-0.548 0-0.999 0.451-0.999 0.999s0.451 0.999 0.999 0.999c0.548 0 0.999-0.451 0.999-0.999s-0.451-0.999-0.999-0.999zM26.978 9.992c-0.548 0-0.999 0.451-0.999 0.999s0.451 0.999 0.999 0.999c0.548 0 0.999-0.451 0.999-0.999s-0.451-0.999-0.999-0.999zM26.978 12.99c-0.548 0-0.999 0.451-0.999 0.999s0.451 0.999 0.999 0.999c0.548 0 0.999-0.451 0.999-0.999s-0.451-0.999-0.999-0.999zM26.978 15.987c-0.548 0-0.999 0.451-0.999 0.999s0.451 0.999 0.999 0.999c0.548 0 0.999-0.451 0.999-0.999s-0.451-0.999-0.999-0.999zM15.987 9.992c-1.653 0-2.998 1.345-2.998 2.998 0 1.248 1.614 4.488 2.108 5.453l0.889 1.731 0.889-1.731c0.495-0.964 2.108-4.205 2.108-5.453 0-1.653-1.345-2.998-2.998-2.998zM15.987 13.989c-0.552 0-0.999-0.448-0.999-0.999s0.448-0.999 0.999-0.999c0.552 0 0.999 0.448 0.999 0.999s-0.448 0.999-0.999 0.999z"></path>
</svg>
