<!-- Generated by IcoMoon.io -->
<svg version="1.1" xmlns="http://www.w3.org/2000/svg" width="32" height="32" viewBox="0 0 32 32">
<title>trolley</title>
<path d="M4.996 28.977h21.982l0-1.998h-21.982v1.998zM10.991 20.983c-1.644 0-2.998 1.353-2.998 2.998s1.353 2.998 2.998 2.998c1.644 0 2.998-1.353 2.998-2.998s-1.353-2.998-2.998-2.998zM10.991 22.982c0.548 0 0.999 0.451 0.999 0.999s-0.451 0.999-0.999 0.999c-0.548 0-0.999-0.451-0.999-0.999s0.451-0.999 0.999-0.999zM15.573 21.694l9.679-3.644 0.704 1.87-11.554 4.35-6.999-18.715-1.74 0.631-0.681-1.879 3.6-1.306 6.99 18.693z"></path>
<path d="M14.371 12.623l7.394-2.723 2.363 6.418-7.394 2.723-2.363-6.418zM16.937 13.808l0.982 2.668 3.644-1.342-0.982-2.668-3.644 1.342z"></path>
<path d="M11.187 4.38l7.394-2.723 2.363 6.418-7.394 2.723-2.363-6.418zM13.753 5.565l0.982 2.668 3.644-1.342-0.982-2.668-3.644 1.342z"></path>
</svg>
