<!-- Generated by IcoMoon.io -->
<svg version="1.1" xmlns="http://www.w3.org/2000/svg" width="32" height="32" viewBox="0 0 32 32">
<title>user</title>
<path d="M15.949 0c-5.59 0-10.149 4.559-10.149 10.149 0 3.494 1.784 6.598 4.486 8.427-5.171 2.22-8.835 7.352-8.835 13.321h2.9c0-4.191 2.215-7.838 5.528-9.877 0.974 2.39 3.347 4.078 6.072 4.078s5.097-1.688 6.071-4.078c3.313 2.039 5.528 5.686 5.528 9.877h2.9c0-5.969-3.665-11.101-8.835-13.321 2.701-1.829 4.486-4.933 4.486-8.427 0-5.59-4.559-10.149-10.149-10.149zM15.949 2.262c4.021 0 7.887 3.866 7.887 7.887s-3.866 7.887-7.887 7.887c-4.021 0-7.887-3.866-7.887-7.887s3.866-7.887 7.887-7.887zM15.949 20.299c1.189 0 2.322 0.17 3.398 0.498-0.504 1.399-1.818 2.401-3.398 2.401s-2.894-1.002-3.398-2.401c1.076-0.329 2.209-0.498 3.398-0.498z"></path>
</svg>
