<?xml version="1.0" encoding="utf-8"?>
<!-- Generator: Adobe Illustrator 22.1.0, SVG Export Plug-In . SVG Version: 6.00 Build 0)  -->
<svg version="1.1" id="Calque_1" xmlns="http://www.w3.org/2000/svg" xmlns:xlink="http://www.w3.org/1999/xlink" x="0px" y="0px"
	 viewBox="0 0 48 48" style="enable-background:new 0 0 48 48;" xml:space="preserve">
<g>
	<path d="M47.5,14.4c0,0-0.5-3.3-1.9-4.8c-1.8-1.9-3.9-1.9-4.8-2C34.1,7.1,24,7.1,24,7.1l0,0c0,0-10.1,0-16.8,0.5
		c-0.9,0.1-3,0.1-4.8,2c-1.4,1.5-1.9,4.8-1.9,4.8S0,18.3,0,22.2v3.6c0,3.9,0.5,7.8,0.5,7.8s0.5,3.3,1.9,4.8c1.8,1.9,4.2,1.9,5.3,2.1
		C11.5,40.9,24,41,24,41s10.1,0,16.8-0.5c0.9-0.1,3-0.1,4.8-2c1.4-1.5,1.9-4.8,1.9-4.8s0.5-3.9,0.5-7.8v-3.6
		C48,18.3,47.5,14.4,47.5,14.4z M19,30.2V16.7l13,6.8L19,30.2z"/>
</g>
</svg>
