<!-- Generated by IcoMoon.io -->
<svg version="1.1" xmlns="http://www.w3.org/2000/svg" width="32" height="32" viewBox="0 0 32 32">
<title>cart-fast</title>
<path d="M1.342 2.526c-0.741 0-1.342 0.601-1.342 1.342s0.601 1.342 1.342 1.342h2.978l1.007 4.027h23.055l-2.561 9.396h-13.74v2.685h13.738c1.211 0 2.271-0.811 2.59-1.979l3.489-12.786h-24.476l-0.498-1.992c-0.298-1.195-1.371-2.034-2.603-2.034h-2.978zM24.161 21.318c-2.208 0-4.027 1.819-4.027 4.027s1.819 4.027 4.027 4.027c2.208 0 4.027-1.819 4.027-4.027s-1.819-4.027-4.027-4.027zM12.081 21.318c-2.208 0-4.027 1.819-4.027 4.027s1.819 4.027 4.027 4.027c2.208 0 4.027-1.819 4.027-4.027s-1.819-4.027-4.027-4.027zM2.685 11.922v2.685h10.738v-2.685h-10.738zM2.685 17.291v2.684h6.711v-2.684h-6.711zM12.081 24.003c0.758 0 1.342 0.584 1.342 1.342s-0.584 1.342-1.342 1.342c-0.758 0-1.342-0.584-1.342-1.342s0.584-1.342 1.342-1.342zM24.161 24.003c0.758 0 1.342 0.584 1.342 1.342s-0.584 1.342-1.342 1.342c-0.759 0-1.342-0.584-1.342-1.342s0.584-1.342 1.342-1.342z"></path>
</svg>
