<!-- Generated by IcoMoon.io -->
<svg version="1.1" xmlns="http://www.w3.org/2000/svg" width="32" height="32" viewBox="0 0 32 32">
<title>cart-hand</title>
<path d="M21.212 9.345l-12.246 4.33-0.666-1.884 14.131-4.996 4.663 13.189-1.884 0.666-3.996-11.305z"></path>
<path d="M13.238 22.762l-5.054-14.293c-0.265-0.749-0.816-1.362-1.534-1.705-0-0-3.078-1.47-3.078-1.47l-0.861 1.803 3.078 1.47c0.239 0.114 0.423 0.319 0.512 0.569-0-0 5.054 14.292 5.054 14.292l1.884-0.666z"></path>
<path d="M28.644 18.376l-14.131 4.996 0.666 1.884 14.131-4.996-0.666-1.884z"></path>
<path d="M15.007 15.778l3.769-1.332-0.666-1.884-3.769 1.332 0.666 1.884z"></path>
<path d="M12.962 21.982c-1.654 0-2.998 1.343-2.998 2.998s1.343 2.998 2.998 2.998c1.654 0 2.998-1.343 2.998-2.998s-1.343-2.998-2.998-2.998zM12.962 23.981c0.552 0 0.999 0.448 0.999 0.999s-0.448 0.999-0.999 0.999c-0.551 0-0.999-0.448-0.999-0.999s0.448-0.999 0.999-0.999z"></path>
</svg>
