<!-- Generated by IcoMoon.io -->
<svg version="1.1" xmlns="http://www.w3.org/2000/svg" width="32" height="32" viewBox="0 0 32 32">
<title>cart-add</title>
<path d="M1.289 3.061c-0.71 0-1.289 0.579-1.289 1.289s0.579 1.289 1.289 1.289h2.859l3.383 13.532c0.287 1.148 1.314 1.933 2.497 1.933h16.070c1.163 0 2.15-0.77 2.457-1.893l3.343-12.284h-2.698l-3.101 11.599h-16.070l-3.383-13.532c-0.287-1.148-1.314-1.933-2.497-1.933h-2.859zM24.487 21.104c-2.119 0-3.866 1.747-3.866 3.866s1.747 3.866 3.866 3.866c2.119 0 3.866-1.747 3.866-3.866s-1.747-3.866-3.866-3.866zM12.888 21.104c-2.12 0-3.866 1.747-3.866 3.866s1.747 3.866 3.866 3.866c2.12 0 3.867-1.747 3.867-3.866s-1.747-3.866-3.867-3.866zM16.755 3.061v3.866h-3.867v2.578h3.867v3.867h2.578v-3.867h3.866v-2.578h-3.866v-3.866h-2.578zM12.888 23.682c0.725 0 1.289 0.564 1.289 1.289s-0.564 1.289-1.289 1.289c-0.725 0-1.289-0.564-1.289-1.289s0.564-1.289 1.289-1.289zM24.487 23.682c0.725 0 1.289 0.564 1.289 1.289s-0.564 1.289-1.289 1.289c-0.725 0-1.289-0.564-1.289-1.289s0.564-1.289 1.289-1.289z"></path>
</svg>
