<!-- Generated by IcoMoon.io -->
<svg version="1.1" xmlns="http://www.w3.org/2000/svg" width="32" height="32" viewBox="0 0 32 32">
<title>cart-empty</title>
<path d="M1.293 3.070c-0.712 0-1.293 0.581-1.293 1.293s0.581 1.293 1.293 1.293h2.868l3.393 13.573c0.288 1.151 1.318 1.939 2.505 1.939h16.118c1.166 0 2.156-0.773 2.464-1.899l3.353-12.321h-2.707l-3.111 11.634h-16.118l-3.393-13.573c-0.288-1.151-1.318-1.939-2.505-1.939h-2.868zM24.561 21.168c-2.126 0-3.878 1.752-3.878 3.878s1.752 3.878 3.878 3.878c2.126 0 3.878-1.752 3.878-3.878s-1.752-3.878-3.878-3.878zM12.927 21.168c-2.126 0-3.878 1.752-3.878 3.878s1.752 3.878 3.878 3.878c2.126 0 3.878-1.752 3.878-3.878s-1.752-3.878-3.878-3.878zM15.149 4.726l-1.858 1.858 2.949 2.949-2.949 2.949 1.858 1.858 2.949-2.949 2.949 2.949 1.858-1.858-2.949-2.949 2.949-2.949-1.858-1.858-2.949 2.949-2.949-2.949zM12.927 23.753c0.727 0 1.293 0.566 1.293 1.293s-0.566 1.293-1.293 1.293c-0.727 0-1.293-0.566-1.293-1.293s0.566-1.293 1.293-1.293zM24.561 23.753c0.727 0 1.293 0.566 1.293 1.293s-0.566 1.293-1.293 1.293c-0.727 0-1.293-0.566-1.293-1.293s0.566-1.293 1.293-1.293z"></path>
</svg>
