<!-- Generated by IcoMoon.io -->
<svg version="1.1" xmlns="http://www.w3.org/2000/svg" width="32" height="32" viewBox="0 0 32 32">
<title>favorites-list</title>
<path d="M3.959 0.718l-1.14 2.588-2.819 0.305 2.132 1.904-0.61 2.819 2.437-1.448 2.437 1.448-0.607-2.819 2.209-1.904-2.819-0.305-1.22-2.588zM10.32 3.256v2.539h21.578v-2.539h-21.578zM3.959 12.141l-1.14 2.588-2.819 0.305 2.132 1.904-0.61 2.819 2.437-1.448 2.437 1.448-0.607-2.819 2.209-1.904-2.819-0.305-1.22-2.588zM10.32 14.68v2.539h21.578v-2.539h-21.578zM3.959 23.565l-1.14 2.588-2.819 0.305 2.132 1.904-0.61 2.819 2.437-1.448 2.437 1.448-0.607-2.819 2.209-1.904-2.819-0.305-1.22-2.588zM10.32 26.103v2.539h21.578v-2.539h-21.578z"></path>
</svg>
