<?xml version="1.0" encoding="UTF-8" standalone="no"?><!DOCTYPE svg PUBLIC "-//W3C//DTD SVG 1.1//EN" "http://www.w3.org/Graphics/SVG/1.1/DTD/svg11.dtd"><svg width="100%" height="100%" viewBox="0 0 534 534" version="1.1" xmlns="http://www.w3.org/2000/svg" xmlns:xlink="http://www.w3.org/1999/xlink" xml:space="preserve" xmlns:serif="http://www.serif.com/" style="fill-rule:evenodd;clip-rule:evenodd;stroke-linejoin:round;stroke-miterlimit:2;"><g><g><rect x="223.113" y="433.722" width="87.107" height="24.888"/></g><g><path d="M266.667,520.829c0.208,0.003 0.417,0.004 0.626,0.004c24.001,0 43.836,-19.559 44.171,-43.557l-89.595,-0c0.336,23.998 20.171,43.557 44.171,43.557c0.209,0 0.418,-0.001 0.627,-0.004Z" style="fill-rule:nonzero;"/></g><g><path d="M266.667,157.47l-7.467,0c-63.71,3.928 -113.981,57.496 -113.86,121.327c-0.362,47.789 27.837,91.437 71.551,110.75c3.414,1.658 5.761,4.943 6.222,8.711l0,16.799l87.107,-0l-0,-16.177c0.037,-3.914 2.532,-7.407 6.222,-8.711c43.493,-19.911 71.522,-63.538 71.552,-111.372c0.001,-0.208 0.001,-0.416 0.001,-0.624c0,-66.216 -54.488,-120.704 -120.705,-120.704c-0.207,-0 -0.415,0 -0.623,0.001Z" style="fill-rule:nonzero;"/></g><g><path d="M263.556,98.362c5.12,0 9.333,-4.213 9.333,-9.333l-0,-67.196c-0,-5.12 -4.213,-9.333 -9.333,-9.333c-5.12,-0 -9.333,4.213 -9.333,9.333l-0,67.196c-0,5.12 4.213,9.333 9.333,9.333Z" style="fill-rule:nonzero;"/></g><g><path d="M83.121,265.731l-67.197,0c-5.12,0 -9.333,4.213 -9.333,9.333c0,5.12 4.213,9.333 9.333,9.333l67.197,-0c5.12,-0 9.333,-4.213 9.333,-9.333c-0,-5.12 -4.213,-9.333 -9.333,-9.333Z" style="fill-rule:nonzero;"/></g><g><path d="M517.409,265.731l-67.196,0c-5.12,0 -9.333,4.213 -9.333,9.333c-0,5.12 4.213,9.333 9.333,9.333l67.196,-0c5.12,-0 9.333,-4.213 9.333,-9.333c-0,-5.12 -4.213,-9.333 -9.333,-9.333Z" style="fill-rule:nonzero;"/></g><g><path d="M144.095,135.694l-47.908,-47.287c-3.822,-3.001 -9.244,-3.001 -13.066,0c-3.614,3.817 -3.614,9.871 -0,13.688l47.908,47.287c1.771,1.445 3.943,2.313 6.222,2.488c2.6,-0.102 5.058,-1.219 6.844,-3.11c1.874,-1.653 2.949,-4.035 2.949,-6.533c0,-2.499 -1.075,-4.881 -2.949,-6.533Z" style="fill-rule:nonzero;"/></g><g><path d="M450.213,88.407c-3.822,-3.001 -9.245,-3.001 -13.066,0l-47.909,47.287c-1.874,1.652 -2.949,4.034 -2.949,6.533c-0,2.498 1.075,4.88 2.949,6.533c1.786,1.891 4.245,3.008 6.844,3.11c2.279,-0.175 4.451,-1.043 6.222,-2.488l47.909,-47.287c3.613,-3.817 3.613,-9.871 -0,-13.688Z" style="fill-rule:nonzero;"/></g></g></svg>