<?xml version="1.0" encoding="utf-8"?>
<!-- Generator: Adobe Illustrator 22.1.0, SVG Export Plug-In . SVG Version: 6.00 Build 0)  -->
<svg version="1.1" id="Calque_1" xmlns="http://www.w3.org/2000/svg" xmlns:xlink="http://www.w3.org/1999/xlink" x="0px" y="0px"
	 viewBox="0 0 48 48" style="enable-background:new 0 0 48 48;" xml:space="preserve">
<g>
	<path d="M11.6,45.6h-9V16.4h9V45.6z M7.1,12.5c-2.9,0-5.2-2.3-5.2-5.2S4.2,2,7.1,2s5.2,2.3,5.2,5.2C12.4,10,10.1,12.5,7.1,12.5z
		 M45.6,45.6h-9V31.4c0-3.4,0-7.8-4.7-7.8s-5.5,3.7-5.5,7.5v14.4h-9V16.4H26v3.9h0.1c1.1-2.3,4.2-4.7,8.5-4.7
		c9.2,0,10.8,6,10.8,13.9v16H45.6z"/>
</g>
</svg>
