<!-- Generated by IcoMoon.io -->
<svg version="1.1" xmlns="http://www.w3.org/2000/svg" width="32" height="32" viewBox="0 0 32 32">
<title>loading3</title>
<path d="M9.841 30.771c-1.399-0.584-2.707-1.363-3.889-2.317l1.676-2.076c0.985 0.797 2.076 1.447 3.24 1.932l-1.027 2.461zM3.548 26.048c-0.955-1.184-1.735-2.492-2.319-3.889l2.461-1.027c0.485 1.163 1.136 2.253 1.933 3.241l-2.076 1.675z"></path>
<path d="M0.261 18.895c-0.173-0.947-0.261-1.921-0.261-2.895l1.333-1.333 1.333 1.333c0 0.812 0.073 1.625 0.219 2.416l-2.624 0.479z"></path>
<path d="M20.571 31.337l-0.759-2.557c0.84-0.249 1.661-0.585 2.44-1l1.252 2.355c-0.936 0.497-1.923 0.901-2.933 1.203zM26.141 28.376l-1.693-2.060c0.681-0.56 1.309-1.189 1.869-1.869l2.061 1.691c-0.669 0.817-1.423 1.569-2.237 2.239z"></path>
<path d="M17.215 29.279c-0.4 0.035-0.805 0.055-1.215 0.055-0.812 0-1.625-0.073-2.415-0.217l-0.48 2.623c0.948 0.173 1.923 0.261 2.895 0.261 0.489 0 0.973-0.023 1.451-0.065l-0.236-2.656z"></path>
<path d="M2.667 16c0-7.364 5.97-13.333 13.333-13.333s13.333 5.97 13.333 13.333h2.667c0-8.836-7.164-16-16-16s-16 7.164-16 16h2.667z"></path>
</svg>
