<?xml version="1.0" encoding="utf-8"?>
<!-- Generator: Adobe Illustrator 23.0.6, SVG Export Plug-In . SVG Version: 6.00 Build 0)  -->
<svg version="1.1" id="Calque_1" xmlns="http://www.w3.org/2000/svg" xmlns:xlink="http://www.w3.org/1999/xlink" x="0px" y="0px"
	 viewBox="0 0 32 32" style="enable-background:new 0 0 32 32;" xml:space="preserve">
<g id="icomoon-ignore">
</g>
<g>
	<path d="M12.6,27.1c4,0,7.6-2.1,9.6-5.6l-1.1-0.7c-1.8,3.1-5,4.9-8.5,4.9c-5.4,0-9.8-4.4-9.8-9.8c0-5.4,4.4-9.8,9.8-9.8
		c3.5,0,6.7,1.9,8.5,4.9l1.1-0.7c-2-3.4-5.7-5.6-9.6-5.6C6.5,4.9,1.5,9.9,1.5,16S6.5,27.1,12.6,27.1z"/>
	<polygon points="11.3,15.3 11.3,16.7 28,16.7 24.8,19.9 25.7,20.9 30.5,16 25.7,11.1 24.8,12.1 28,15.3 	"/>
</g>
</svg>
