<!-- Generated by IcoMoon.io -->
<svg version="1.1" xmlns="http://www.w3.org/2000/svg" width="32" height="32" viewBox="0 0 32 32">
<title>phone</title>
<path d="M4.001 6.775l3.119-3.22 0.049-0.040c0.867-0.693 2.080-0.693 2.947 0l0.048 0.038 4.106 4.206c0.883 0.764 0.943 2.22 0.025 3.138l-2.019 2.019c0.416 0.898 1.35 2.66 2.801 4.046 1.459 1.393 3.199 2.365 4.098 2.816l2-2c0.915-0.915 2.197-0.915 3.112 0 0 0 4.097 4.097 4.097 4.097 0.915 0.915 0.915 2.197 0 3.112l-3.097 3.098-0.056 0.052c-0.97 0.831-2.217 1.105-3.464 0.689l-0.048-0.017c-2.37-0.928-7.108-2.993-11.334-7.218-4.237-4.237-6.405-8.993-7.223-11.347-0.432-1.152-0.148-2.587 0.84-3.468zM8.835 5.053c-0.117-0.074-0.265-0.074-0.382-0.001l-3.071 3.17-0.035 0.030c-0.375 0.322-0.475 0.86-0.306 1.311 0.772 2.219 2.801 6.657 6.757 10.613 3.952 3.952 8.386 5.884 10.622 6.76 0.534 0.171 1.066 0.051 1.486-0.296l3.066-3.066c0.084-0.084 0.084-0.202 0-0.286 0 0-4.097-4.097-4.097-4.097-0.084-0.084-0.202-0.084-0.286 0l-2.976 2.976-0.622-0.266c0 0-2.964-1.27-5.292-3.493-2.361-2.253-3.542-5.364-3.542-5.364l-0.229-0.604c0 0 2.955-2.955 2.955-2.955 0.043-0.043 0.071-0.095 0.079-0.149 0.004-0.022 0.021-0.049 0.003-0.063l-0.048-0.038-4.082-4.182z"></path>
</svg>
