<!-- Generated by IcoMoon.io -->
<svg version="1.1" xmlns="http://www.w3.org/2000/svg" width="32" height="32" viewBox="0 0 32 32">
<title>product-empty</title>
<path d="M3.553 24.323l12.203 4.322c0.025 0 0.051 0.025 0.076 0.025h0.331c0.025 0 0.051-0.025 0.076-0.025l12.203-4.322c0.305-0.102 0.508-0.407 0.508-0.712v-8.542l2.542-0.89c0.203-0.076 0.381-0.254 0.458-0.458s0.051-0.458-0.076-0.661l-3.051-5.085v-0.025c0-0.025-0.025-0.025-0.025-0.051v-0.025c0-0.025-0.025-0.025-0.025-0.051l-0.051-0.051h-0.025c-0.025 0-0.025-0.025-0.051-0.025l-0.025-0.025h-0.051c-0.025 0-0.025-0.025-0.051-0.025s-0.025 0-0.051-0.025h-0.025l-12.203-4.322c-0.051-0.025-0.102-0.025-0.153-0.025h-0.203c-0.051 0-0.102 0.025-0.153 0.025l-12.203 4.322c0 0-0.025 0-0.025 0.025-0.025 0.025-0.076 0.025-0.102 0.051-0.051 0.025-0.102 0.076-0.153 0.127l-0.025 0.025c-0.025 0.025-0.025 0.051-0.051 0.051l-0.025 0.025-3.051 5.085c-0.102 0.178-0.127 0.432-0.051 0.636s0.254 0.381 0.458 0.458l2.542 0.89v8.568c0 0.331 0.203 0.61 0.508 0.712zM27.451 23.077l-10.678 3.788v-6.127c0-0.432-0.331-0.763-0.763-0.763s-0.763 0.331-0.763 0.763v6.127l-10.678-3.788v-7.475l8.136 2.873c0.076 0.025 0.178 0.051 0.254 0.051 0.254 0 0.508-0.127 0.661-0.381l2.39-3.992 2.39 3.992c0.153 0.254 0.407 0.381 0.661 0.381 0.076 0 0.178-0.025 0.254-0.051l8.136-2.873v7.475zM16.773 5.103l9.152 3.254-9.152 3.254v-6.508zM19.392 16.849l-2.263-3.763 10.729-3.814 2.263 3.763-10.729 3.814zM4.138 9.272l10.729 3.814-2.263 3.763-10.729-3.814 2.263-3.763z"></path>
</svg>
