<!-- Generated by IcoMoon.io -->
<svg version="1.1" xmlns="http://www.w3.org/2000/svg" width="32" height="32" viewBox="0 0 32 32">
<title>search</title>
<path d="M19.495 0c-6.836 0-12.403 5.567-12.403 12.403 0 2.97 1.042 5.693 2.791 7.829l-9.883 9.883 1.783 1.783 9.883-9.883c2.136 1.749 4.859 2.791 7.829 2.791 6.836 0 12.403-5.567 12.403-12.403s-5.567-12.403-12.403-12.403zM19.495 2.481c5.494 0 9.922 4.428 9.922 9.922s-4.428 9.922-9.922 9.922c-5.494 0-9.922-4.428-9.922-9.922s4.428-9.922 9.922-9.922z"></path>
</svg>
