<!-- Generated by IcoMoon.io -->
<svg version="1.1" xmlns="http://www.w3.org/2000/svg" width="32" height="32" viewBox="0 0 32 32">
<title>signout</title>
<path d="M26.882 14.671l-3.040-3.040 1.875-1.875 6.24 6.24-6.24 6.24-1.875-1.875 3.040-3.040h-16.187v-2.651h16.187z"></path>
<path d="M26.844 23.619c-2.4 3.407-6.363 5.634-10.847 5.634-7.321 0-13.256-5.935-13.256-13.256s5.935-13.256 13.256-13.256c4.483 0 8.446 2.225 10.845 5.632l2.168-1.527c-2.879-4.088-7.634-6.757-13.013-6.757-8.785 0-15.907 7.122-15.907 15.907s7.122 15.907 15.907 15.907c5.379 0 10.135-2.67 13.014-6.758l-2.168-1.527z"></path>
</svg>
