<!-- Generated by IcoMoon.io -->
<svg version="1.1" xmlns="http://www.w3.org/2000/svg" width="32" height="32" viewBox="0 0 32 32">
<title>user-edit</title>
<path d="M11.426 0c-4.404 0-7.998 3.595-7.998 7.998 0 2.751 1.402 5.185 3.528 6.626-4.085 1.744-6.956 5.799-6.956 10.514h2.285c0-2.991 1.452-5.642 3.68-7.311 1.254 1.659 3.231 2.741 5.461 2.741 2.228 0 4.205-1.079 5.459-2.736 0.777 0.583 1.468 1.279 2.026 2.075l1.629-1.631c-1.201-1.591-2.812-2.845-4.666-3.638 2.138-1.439 3.551-3.879 3.551-6.639 0-4.404-3.595-7.998-7.998-7.998zM11.426 2.285c3.169 0 5.713 2.544 5.713 5.713s-2.544 5.713-5.713 5.713c-3.169 0-5.713-2.544-5.713-5.713s2.544-5.713 5.713-5.713zM28.566 14.854c-0.857 0-1.714 0.343-2.399 1.029l-10.056 10.054-1.256 6.057 6.057-1.256 10.054-10.056c0.686-0.686 1.029-1.542 1.029-2.399s-0.343-1.714-1.029-2.399c-0.686-0.686-1.542-1.029-2.399-1.029zM11.426 15.997c1.227 0 2.394 0.25 3.464 0.692-0.836 0.973-2.071 1.593-3.464 1.593-1.395 0-2.634-0.621-3.47-1.598 1.071-0.441 2.242-0.687 3.47-0.687zM28.566 17.14c0.286 0 0.57 0.115 0.799 0.344 0.457 0.457 0.457 1.141 0 1.598l-9.596 9.599-1.944 0.344 0.344-1.944 9.599-9.596c0.229-0.229 0.513-0.344 0.799-0.344z"></path>
</svg>
